<svg height="32" viewBox="0 0 56 32" width="56" xmlns="http://www.w3.org/2000/svg"><g fill="#ffc740"><path d="M27.385 8.615c0-.8-.677-1.477-1.477-1.477H7.446c-.8 0-1.477.677-1.477 1.477s.677 1.477 1.477 1.477h18.462c.861 0 1.477-.677 1.477-1.477zm-2.4 7.077c0-.8-.677-1.477-1.477-1.477h-9.723c-.8 0-1.477.677-1.477 1.477s.677 1.477 1.477 1.477h9.723c.861 0 1.477-.677 1.477-1.477z"/><path d="M39.446.062H1.476C.677.062 0 .738 0 1.538s.677 1.477 1.477 1.477h38.03c7.2 0 12.985 5.847 12.985 12.985s-5.846 12.985-12.984 12.985c-4.862 0-9.293-2.708-11.57-7.016a1.435 1.435 0 0 0-1.292-.8h-7.57c-.8 0-1.476.677-1.476 1.477s.677 1.477 1.477 1.477h6.646A15.89 15.89 0 0 0 39.446 32c8.8-.062 15.939-7.2 15.939-16S48.246.062 39.446.062z"/><path d="M39.446 5.6c-.861 0-1.6.738-1.6 1.6v9.415c0 .123.062.185.062.308.061.062.061.185.123.246.061.062.123.185.184.246l4.062 4.062c.308.308.738.492 1.108.492.43 0 .8-.184 1.107-.492a1.635 1.635 0 0 0 0-2.277l-3.63-3.63V7.2c.184-.862-.493-1.6-1.416-1.6z"/></g></svg>