<svg height="35" viewBox="0 0 29 35" width="29" xmlns="http://www.w3.org/2000/svg"><g fill="#64edbf"><path d="M26.364 0H2.197C.989 0 0 .979 0 2.176v31.546c0 .435.22.87.66.979.438.217.878.109 1.207-.218l2.527-2.502 2.526 2.502a1.07 1.07 0 0 0 1.538 0l2.527-2.502 2.526 2.502a1.07 1.07 0 0 0 1.538 0l2.527-2.502 2.526 2.502a1.07 1.07 0 0 0 1.538 0l2.527-2.502 2.526 2.502c.22.218.44.327.77.327.109 0 .329 0 .439-.11.439-.217.659-.543.659-.978V2.176C28.56.979 27.572 0 26.364 0zm0 31.111l-1.428-1.414a1.07 1.07 0 0 0-1.538 0l-2.527 2.502-2.526-2.502c-.22-.218-.44-.326-.77-.326-.329 0-.548.108-.768.326l-2.527 2.502-2.526-2.502a1.07 1.07 0 0 0-1.538 0l-2.527 2.502-2.526-2.502a1.07 1.07 0 0 0-1.538 0l-1.428 1.414V2.176h24.167V31.11z"/><path d="M8.019 20.342c.22.217.55.326.769.326.22 0 .55-.109.769-.326L20.542 9.464c.44-.435.44-1.088 0-1.523a1.07 1.07 0 0 0-1.538 0L8.019 18.819a1.045 1.045 0 0 0 0 1.523zm.879-7.288h.44c.878 0 1.647-.327 2.306-.762.769-.653 1.318-1.523 1.428-2.502a3.859 3.859 0 0 0-.769-2.828c-.66-.87-1.538-1.305-2.526-1.414-.99-.109-1.978.109-2.857.761-.768.653-1.318 1.523-1.428 2.502-.11.98.11 1.958.77 2.828.658.87 1.537 1.306 2.636 1.415zM7.689 9.029c0-.435.22-.87.66-1.088.329-.218.659-.326.988-.326h.22c.44 0 .879.217 1.098.652.22.327.44.762.33 1.197 0 .435-.22.87-.66 1.088-.439.217-.768.326-1.208.326-.439 0-.878-.218-1.098-.653-.22-.326-.33-.761-.33-1.196zm9.228 6.962a4.62 4.62 0 0 0-1.538 2.502c-.11.979.11 1.958.769 2.828a4.68 4.68 0 0 0 2.526 1.523h.55c.878 0 1.647-.218 2.306-.762a4.62 4.62 0 0 0 1.538-2.502 3.859 3.859 0 0 0-.769-2.828 4.68 4.68 0 0 0-2.526-1.523c-.989-.109-2.087.109-2.856.762zm3.625 2.066c.22.327.33.762.33 1.197-.11.435-.33.762-.66 1.088-.33.217-.769.326-1.208.326-.44-.109-.77-.326-1.099-.652-.22-.327-.33-.762-.33-1.197.11-.435.33-.762.66-1.088.33-.217.659-.326.988-.326h.22c.44.109.879.326 1.099.652z"/></g></svg>