<svg height="24" viewBox="0 0 48 24" width="48" xmlns="http://www.w3.org/2000/svg"><path d="M46.217 4.368h-2.772V2.481c0-.828-.556-1.5-1.241-1.5h-5.997c-.685 0-1.241.672-1.241 1.5v5.824H13.034V2.481c0-.828-.555-1.5-1.24-1.5H5.796c-.686 0-1.241.672-1.241 1.5v1.887H1.783c-.686 0-1.242.672-1.242 1.5V18.13c0 .828.556 1.5 1.242 1.5h2.773v1.889c0 .828.555 1.5 1.241 1.5h5.996c.686 0 1.241-.672 1.241-1.5v-5.826h21.932v5.826c0 .828.556 1.5 1.24 1.5h5.998c.685 0 1.241-.672 1.241-1.5V19.63h2.772c.686 0 1.242-.672 1.242-1.5V5.868c0-.828-.556-1.5-1.242-1.5zM4.403 16.63H3.024V7.368h1.379zm6.149 3.389H7.039V3.981h3.513zm2.482-7.327v-1.387h21.932v1.387zm27.928 7.327h-3.514V3.982h3.514zm4.014-3.389h-1.379V7.368h1.379z" fill="#ff8ff5"/></svg>